# xmcd
#
# Track frame offsets:
#	150
#	13625
#	27755
#	44583
#	57787
#	72246
#	85239
#	100013
#	112853
#	129456
#	145580
#	156347
#	171353
#	187016
#	201200
#	214743
#	230094
#	244903
#	256693
#	271570
#	287175
#
# Disc length: 4005 seconds
#
# Revision: 0
# Processed by: cddbd v1.5.2PL0 Copyright (c) Steve Scherf et al.
# Submitted via: EasyCDDAExtractor 10.0.5.1
#
DISCID=280fa315
DTITLE=Various Artist - På Dansefot 4
DYEAR=2006
DGENRE=Pop
TTITLE0=Scandinavia - Oliver Spillemann
TTITLE1=Jhohans - Leve I En Drøm
TTITLE2=Pk and Dansefolket - Vår Gamle Jukeboks
TTITLE3=Foss Arne Willy - Kokosnøtta
TTITLE4=Steinar Engelbrektson Band - På Eit Teppe Vi Tok Med
TTITLE5=Jenny Jenssen - (Hvis Æ Fikk Være) Sola Di
TTITLE6=Furulunds - Fest På Folkets Hus
TTITLE7=Vestnorge - Swingmusikk
TTITLE8=Anne Nørdsti - Jeg Vil Så Gjerne Reise Hjem
TTITLE9=Ole Ivars - Døra Bør Stå På Gløtt
TTITLE10=Ingemars - Alt Fær Dæ
TTITLE11=Lasse Johansens Orkester - Min Gitarr
TTITLE12=Dænsebændet - Du Førsvænt Som En Vind
TTITLE13=Casanova - Sommerferie
TTITLE14=Bjørns Orkester - Trekkspill-Oskar
TTITLE15=Mickes - Ei Lita Stjerne
TTITLE16=Contrazt - Sol Og Sommer
TTITLE17=Grete Bogen - En - To - Tre
TTITLE18=Joe Bjørnars - På Fisketur
TTITLE19=Nordans - Roser Er Røde (Flettfrids Sang)
TTITLE20=Swingers - Gitarboogie
EXTD=
EXTT0=
EXTT1=
EXTT2=
EXTT3=
EXTT4=
EXTT5=
EXTT6=
EXTT7=
EXTT8=
EXTT9=
EXTT10=
EXTT11=
EXTT12=
EXTT13=
EXTT14=
EXTT15=
EXTT16=
EXTT17=
EXTT18=
EXTT19=
EXTT20=
PLAYORDER=
